<?xml version="1.0" standalone="no"?>
<!DOCTYPE svg PUBLIC "-//W3C//DTD SVG 20010904//EN"
 "http://www.w3.org/TR/2001/REC-SVG-20010904/DTD/svg10.dtd">
<svg version="1.0" xmlns="http://www.w3.org/2000/svg"
 width="500.000000pt" height="500.000000pt" viewBox="0 0 500.000000 500.000000"
 preserveAspectRatio="xMidYMid meet">

<g transform="translate(0.000000,500.000000) scale(0.100000,-0.100000)"
fill="#000000" stroke="none">
<path d="M1667 4120 l-716 -590 746 -908 c410 -499 755 -917 767 -929 l21 -21
740 610 c407 336 739 613 737 617 -7 17 -428 521 -433 519 -4 -2 -179 -145
-390 -318 -210 -173 -388 -318 -395 -322 -7 -5 -30 15 -63 55 -28 34 -51 65
-51 69 0 3 153 131 339 285 188 153 338 284 336 290 -3 7 -99 128 -215 268
l-211 255 -102 -83 c-469 -385 -582 -477 -589 -477 -12 0 -107 123 -102 132 3
4 167 141 364 303 198 163 361 299 363 303 3 5 -387 490 -424 526 -3 3 -328
-260 -722 -584z"/>
<path d="M1082 968 l3 -363 178 -3 177 -2 0 60 0 60 -120 0 -120 0 0 95 0 95
95 0 96 0 -3 58 -3 57 -92 3 -93 3 0 89 0 89 118 3 117 3 3 58 3 57 -181 0
-180 0 2 -362z"/>
<path d="M1560 965 l0 -366 58 3 57 3 5 200 5 200 21 -55 c12 -30 45 -122 74
-203 l53 -148 56 3 56 3 3 363 2 362 -60 0 -60 0 0 -195 c0 -107 -4 -195 -9
-195 -4 0 -39 88 -77 195 l-69 195 -57 0 -58 0 0 -365z"/>
<path d="M2062 968 l3 -363 58 -3 57 -3 0 366 0 365 -60 0 -60 0 2 -362z"/>
<path d="M2351 1316 c-48 -27 -50 -41 -51 -351 0 -322 0 -324 66 -351 50 -21
200 -19 244 4 59 29 70 65 70 235 l0 147 -90 0 -90 0 0 -60 0 -60 30 0 30 0 0
-69 c0 -83 -9 -93 -82 -89 l-53 3 -3 235 c-3 263 -3 260 68 260 53 0 69 -17
72 -75 l3 -50 55 0 55 0 3 70 c3 80 -17 132 -58 152 -35 18 -237 17 -269 -1z"/>
<path d="M2795 1317 c-3 -6 -4 -170 -3 -362 l3 -350 55 0 55 0 5 215 c4 142 8
205 14 185 4 -16 27 -113 50 -215 l41 -185 37 -3 c43 -4 34 -28 90 233 l43
200 6 -215 c3 -118 6 -216 7 -217 1 -2 27 -3 57 -3 l55 0 0 365 0 365 -75 0
-74 0 -10 -37 c-5 -21 -29 -125 -52 -231 -23 -106 -46 -187 -50 -180 -3 7 -28
111 -54 231 l-48 217 -74 0 c-50 0 -75 -4 -78 -13z"/>
<path d="M3567 1308 c-19 -77 -147 -680 -147 -693 0 -13 11 -15 58 -13 l57 3
14 73 15 72 82 0 83 0 11 -57 c19 -98 15 -93 81 -93 32 0 59 3 59 8 -1 4 -36
167 -78 362 l-77 355 -77 3 c-72 3 -76 2 -81 -20z m111 -296 c16 -84 27 -154
24 -157 -11 -11 -112 -5 -112 7 0 20 54 308 57 304 2 -1 16 -71 31 -154z"/>
</g>
</svg>
