<?xml version="1.0" standalone="no"?>
<!DOCTYPE svg PUBLIC "-//W3C//DTD SVG 20010904//EN"
 "http://www.w3.org/TR/2001/REC-SVG-20010904/DTD/svg10.dtd">
<svg version="1.0" xmlns="http://www.w3.org/2000/svg"
 width="960.000000pt" height="960.000000pt" viewBox="0 0 960.000000 960.000000"
 preserveAspectRatio="xMidYMid meet">

<g transform="translate(0.000000,960.000000) scale(0.100000,-0.100000)"
fill="#000000" stroke="none">
<path d="M4480 6544 c-324 -22 -548 -46 -775 -84 -604 -102 -1171 -298 -1575
-544 -347 -212 -598 -471 -718 -741 -60 -135 -77 -223 -76 -390 1 -109 6 -157
22 -218 251 -924 1862 -1583 3707 -1517 143 6 276 12 295 15 19 3 102 12 185
21 82 8 219 26 305 40 1296 209 2227 771 2401 1449 32 126 32 323 0 445 -136
514 -702 967 -1561 1248 -373 122 -747 199 -1210 248 -193 20 -299 25 -590 28
-195 2 -380 2 -410 0z m670 -284 c785 -43 1455 -198 1995 -462 402 -196 686
-454 796 -720 253 -615 -338 -1221 -1506 -1547 -137 -39 -336 -82 -525 -115
-664 -116 -1522 -118 -2182 -6 -839 143 -1488 422 -1844 791 -292 304 -352
626 -178 960 162 310 632 631 1209 824 647 217 1462 317 2235 275z"/>
<path d="M3070 4795 l0 -585 140 0 140 0 0 327 0 326 101 -156 101 -157 98 0
99 0 98 154 98 153 5 -321 5 -321 138 -3 137 -3 0 586 0 585 -140 0 -139 0
-37 -57 c-110 -175 -260 -403 -264 -403 -6 0 -18 19 -112 165 -35 55 -93 144
-127 198 l-63 97 -139 0 -139 0 0 -585z"/>
<path d="M4360 5256 c0 -68 3 -131 6 -140 5 -14 31 -16 180 -16 l174 0 0 -445
0 -445 135 0 135 0 0 445 0 445 180 0 180 0 0 140 0 140 -495 0 -495 0 0 -124z"/>
<path d="M5480 4795 l0 -585 140 0 140 0 2 342 3 343 50 -70 c28 -38 58 -81
67 -95 10 -14 28 -39 40 -57 13 -17 92 -129 177 -247 l154 -216 139 0 138 0 0
585 0 585 -140 0 -140 0 0 -342 0 -342 -60 83 c-33 45 -78 108 -100 139 -21
31 -104 147 -183 257 l-144 200 -142 3 -141 3 0 -586z"/>
</g>
</svg>
