<?xml version="1.0" standalone="no"?>
<!DOCTYPE svg PUBLIC "-//W3C//DTD SVG 20010904//EN"
 "http://www.w3.org/TR/2001/REC-SVG-20010904/DTD/svg10.dtd">
<svg version="1.0" xmlns="http://www.w3.org/2000/svg"
 width="1200.000000pt" height="1208.000000pt" viewBox="0 0 1200.000000 1208.000000"
 preserveAspectRatio="xMidYMid meet">

<g transform="translate(0.000000,1208.000000) scale(0.100000,-0.100000)"
fill="#000000" stroke="none">
<path d="M5750 12069 c-58 -4 -126 -7 -152 -8 -36 -1 -48 -5 -48 -16 0 -10 10
-15 28 -15 30 0 54 -20 66 -55 8 -22 36 -520 36 -648 0 -80 -2 -90 -25 -112
-13 -14 -33 -25 -45 -25 -11 0 -20 -6 -20 -14 0 -15 12 -15 238 0 84 6 105 17
52 29 -39 9 -68 46 -74 98 -4 23 -13 181 -21 350 -15 294 -15 310 2 345 13 26
28 40 51 47 30 9 41 20 25 27 -5 2 -55 0 -113 -3z"/>
<path d="M6380 12068 c0 -8 15 -19 33 -26 21 -8 41 -25 54 -49 18 -33 71 -243
189 -751 21 -89 33 -122 43 -120 8 2 101 165 206 363 206 385 242 438 309 451
21 3 35 11 33 18 -5 14 -239 47 -251 35 -5 -5 -8 -10 -5 -11 2 -2 18 -10 34
-18 57 -30 47 -62 -114 -368 -80 -150 -148 -269 -151 -265 -11 13 -143 595
-142 626 1 38 18 57 53 57 18 0 29 5 29 14 0 10 -35 18 -132 30 -73 9 -145 19
-160 22 -20 4 -28 1 -28 -8z"/>
<path d="M4818 11967 c-79 -21 -118 -36 -118 -45 0 -10 7 -12 24 -8 38 9 73
-10 94 -51 20 -39 157 -561 149 -569 -2 -2 -163 115 -357 261 -303 227 -358
265 -380 260 -92 -20 -191 -52 -191 -60 0 -5 21 -11 46 -13 63 -4 96 -40 123
-134 51 -176 142 -554 142 -590 0 -41 -34 -88 -65 -88 -8 0 -15 -7 -15 -15 0
-12 7 -14 28 -8 15 3 73 18 129 32 57 14 103 31 103 36 0 6 -21 12 -46 15 -36
4 -52 11 -67 32 -19 25 -190 657 -181 667 2 2 9 -1 16 -6 163 -126 791 -583
802 -583 11 0 -7 81 -80 368 -52 203 -94 388 -94 414 0 38 5 50 26 67 15 12
33 21 40 21 8 0 14 7 14 15 0 19 -4 19 -142 -18z"/>
<path d="M7754 11818 c-4 -7 -1 -14 6 -16 8 -3 25 -16 38 -29 21 -21 23 -31
18 -65 -11 -68 -228 -649 -254 -680 -21 -25 -31 -29 -65 -26 -22 1 -42 -2 -44
-7 -1 -6 134 -60 302 -121 l304 -111 46 68 c25 38 45 71 45 74 0 13 -24 2 -59
-25 -57 -46 -90 -47 -208 -7 -165 57 -193 72 -193 101 0 19 104 321 115 334 5
5 269 -98 282 -111 8 -7 15 -31 16 -52 2 -21 8 -40 14 -42 8 -3 83 180 83 203
0 12 -22 0 -49 -27 -26 -25 -37 -30 -59 -24 -37 9 -255 87 -264 94 -7 6 111
343 124 356 10 10 299 -102 324 -126 18 -17 24 -33 24 -66 0 -24 4 -43 9 -43
8 0 51 107 51 127 0 6 -8 14 -17 18 -10 3 -133 49 -273 100 -140 51 -267 98
-282 104 -20 7 -29 7 -34 -1z"/>
<path d="M3319 11452 c-78 -44 -134 -82 -132 -89 3 -9 12 -9 30 -2 60 23 83
-4 253 -306 136 -239 141 -252 136 -293 -18 -131 -123 -236 -251 -249 -66 -7
-131 21 -173 75 -26 33 -217 365 -271 470 -29 56 -27 99 5 133 14 15 22 29 17
32 -13 8 -284 -146 -279 -158 2 -5 10 -8 17 -6 54 16 69 13 101 -20 18 -19 89
-135 158 -258 132 -236 179 -298 253 -331 52 -24 147 -26 208 -5 111 39 211
144 238 250 6 25 13 45 16 45 2 0 16 -23 31 -50 15 -28 30 -49 33 -48 71 34
181 103 181 114 0 11 -6 11 -27 3 -38 -14 -66 -5 -100 34 -15 18 -100 159
-187 315 -171 305 -180 330 -137 376 49 52 11 42 -120 -32z"/>
<path d="M8975 11301 c-3 -5 6 -21 20 -35 30 -30 31 -54 5 -106 -39 -77 -368
-567 -391 -583 -27 -19 -61 -22 -89 -7 -12 6 -21 7 -25 0 -3 -5 49 -46 116
-91 154 -103 192 -116 133 -46 -20 24 -24 37 -20 61 7 32 166 286 179 286 5 0
29 -14 54 -31 77 -53 88 -91 89 -299 1 -287 -8 -253 81 -310 42 -27 79 -47 82
-45 2 3 -6 24 -20 48 -23 40 -24 51 -26 242 -2 110 -7 213 -13 229 -15 44 -14
45 45 39 74 -8 134 11 180 55 88 86 91 209 9 317 -15 20 -106 88 -203 154
-212 142 -198 133 -206 122z m236 -182 c140 -94 168 -224 72 -330 -84 -93
-168 -97 -296 -15 -32 21 -57 43 -55 50 3 13 211 335 216 336 2 0 30 -18 63
-41z"/>
<path d="M5640 10804 c-30 -2 -80 -8 -110 -14 -30 -5 -102 -14 -160 -20 -58
-7 -125 -15 -150 -20 -25 -5 -76 -14 -115 -21 -63 -10 -143 -30 -315 -76 -30
-8 -73 -19 -95 -25 -22 -5 -62 -18 -90 -29 -27 -10 -86 -29 -130 -43 -145 -43
-450 -187 -765 -361 -204 -112 -260 -151 -648 -446 -96 -72 -539 -492 -587
-555 -16 -21 -57 -69 -90 -105 -150 -165 -378 -482 -477 -665 -21 -38 -46 -85
-57 -104 -11 -19 -38 -73 -60 -120 -22 -47 -60 -123 -85 -170 -70 -134 -129
-273 -184 -435 -84 -248 -183 -650 -197 -800 -3 -38 -12 -106 -20 -150 -28
-166 -35 -271 -35 -566 0 -196 5 -349 14 -429 8 -69 17 -165 21 -215 8 -109
50 -397 65 -445 6 -19 20 -75 30 -125 35 -157 175 -584 225 -685 12 -25 30
-68 39 -95 9 -28 44 -100 77 -160 34 -61 83 -150 109 -200 93 -177 127 -232
200 -328 41 -54 97 -128 124 -164 47 -65 231 -285 344 -413 73 -83 284 -286
342 -330 25 -19 77 -63 116 -99 163 -151 284 -246 369 -288 28 -14 73 -41 100
-61 148 -106 603 -344 783 -411 61 -22 163 -59 225 -82 61 -23 146 -54 187
-69 41 -15 125 -38 185 -50 61 -12 157 -33 213 -46 106 -25 146 -30 427 -58
88 -9 207 -23 265 -31 125 -17 487 -20 615 -5 50 5 177 19 283 31 107 11 233
29 280 39 171 37 339 80 427 110 50 17 128 42 175 55 116 32 256 83 370 137
160 74 491 249 565 298 39 25 99 64 135 85 36 21 85 55 109 74 24 20 90 70
146 111 207 152 254 193 465 402 197 195 398 420 510 573 25 33 63 83 85 110
101 123 144 192 313 496 38 69 74 134 81 145 12 21 76 166 126 289 69 166 194
569 224 720 29 148 65 388 75 495 3 30 13 123 21 205 11 100 17 256 18 470 1
282 -1 337 -20 465 -12 80 -27 190 -33 245 -21 186 -89 466 -178 741 -47 143
-165 420 -218 512 -14 23 -47 92 -74 153 -27 61 -60 125 -74 144 -14 18 -40
63 -59 101 -40 83 -201 328 -266 404 -26 30 -68 82 -93 115 -25 33 -58 71 -73
85 -15 14 -41 43 -57 65 -50 68 -387 413 -451 462 -34 26 -92 73 -129 106 -37
32 -96 77 -130 99 -34 22 -96 66 -138 97 -127 97 -220 156 -340 216 -63 32
-139 73 -168 91 -63 41 -213 117 -285 145 -29 11 -74 31 -102 44 -108 52 -197
85 -356 134 -91 28 -177 55 -191 60 -14 5 -138 34 -274 64 -267 59 -478 94
-639 108 -111 9 -678 19 -765 13z m70 -1575 c404 -1 1028 0 1385 2 358 3 785
2 950 -2 165 -4 459 -8 653 -9 301 -2 355 -5 368 -18 16 -16 16 21 -2 -3322
-15 -2760 -14 -2649 -33 -2765 -20 -118 -53 -204 -102 -260 -16 -18 -72 -67
-124 -110 -81 -66 -114 -85 -223 -129 -160 -66 -371 -135 -477 -156 -27 -5
-102 -20 -165 -34 -63 -13 -164 -29 -225 -36 -60 -6 -128 -16 -150 -20 -22 -5
-114 -14 -205 -20 -487 -33 -907 -125 -1045 -229 -27 -21 -76 -54 -107 -74
-71 -45 -144 -140 -204 -265 -25 -50 -47 -92 -49 -92 -2 0 -20 24 -38 53 -75
117 -232 260 -367 335 -97 54 -267 121 -347 137 -43 9 -113 25 -156 36 -93 23
-244 45 -382 54 -205 13 -638 64 -945 110 -176 26 -439 119 -578 205 -56 34
-170 166 -208 241 -57 113 -75 208 -84 444 -5 121 -6 290 -4 375 5 143 13 940
28 2660 3 371 8 774 11 895 3 121 7 615 9 1098 2 483 7 882 12 887 5 5 23 10
39 12 29 3 1183 2 2765 -3z"/>
<path d="M3401 9133 c-217 -2 -369 -7 -376 -13 -8 -7 -14 -124 -19 -412 -4
-222 -9 -466 -11 -543 -5 -186 -15 -1341 -20 -2425 -3 -481 -9 -1050 -15
-1265 -5 -214 -10 -445 -10 -513 0 -68 -1 -126 -4 -130 -10 -18 14 -663 29
-745 46 -263 159 -375 516 -513 93 -36 295 -76 474 -95 55 -6 178 -22 274 -35
95 -13 195 -24 222 -24 26 0 81 -4 121 -9 40 -5 141 -15 223 -21 214 -17 355
-43 513 -96 148 -50 231 -89 360 -167 89 -54 129 -89 210 -182 l52 -60 28 31
c15 17 49 59 76 93 93 118 282 239 461 295 182 57 599 136 717 136 139 0 619
60 806 101 138 30 445 130 523 169 92 47 239 152 287 205 30 32 59 77 70 108
32 85 44 273 42 648 -1 189 1 805 4 1369 6 827 9 2901 6 3885 l0 190 -227 4
c-126 1 -415 6 -643 9 -228 4 -696 6 -1040 4 -344 -1 -636 -3 -650 -3 -14 0
-70 0 -125 -1 -55 -1 -237 -1 -405 -1 -168 1 -530 1 -805 1 -275 -1 -565 0
-645 1 -442 5 -692 6 -1019 4z m4340 -71 c-4 -7 -104 -106 -223 -220 -119
-114 -360 -353 -534 -532 -525 -536 -878 -891 -898 -902 -19 -10 -19 -6 -13
112 l7 123 64 62 c37 36 77 66 94 70 31 6 198 112 221 138 37 46 79 131 94
193 31 128 19 215 -40 297 l-35 48 27 40 c30 47 112 141 184 214 27 28 56 64
64 80 13 24 66 74 123 113 5 4 26 30 46 57 20 28 50 64 68 80 30 29 35 30 148
35 64 3 228 5 364 5 196 0 245 -3 239 -13z m-2919 -4 l187 -1 281 -284 c154
-157 280 -290 280 -297 0 -7 -12 -23 -26 -37 -44 -41 -74 -104 -88 -184 -15
-87 -10 -122 32 -228 33 -82 88 -134 235 -221 53 -31 97 -61 97 -64 0 -4 21
-32 47 -61 50 -57 50 -57 69 -223 5 -46 4 -58 -7 -58 -12 0 -887 874 -1352
1350 -78 80 -180 181 -227 225 l-85 80 145 6 c80 3 163 4 185 2 22 -2 124 -4
227 -5z m1074 -589 c8 -14 -14 -46 -49 -72 -55 -42 -72 -42 -113 -4 -39 35
-39 57 -1 57 12 1 45 9 72 18 49 17 80 18 91 1z m312 -43 c28 -10 52 -23 52
-31 0 -14 -62 -65 -80 -65 -14 0 -110 94 -110 108 0 21 33 31 60 17 14 -7 49
-20 78 -29z m-530 -59 c12 -13 25 -37 28 -55 5 -26 1 -36 -25 -62 -48 -49 -65
-38 -69 41 -2 51 1 71 13 83 22 21 27 20 53 -7z m376 -14 c34 -29 56 -57 56
-74 0 -23 -105 -119 -130 -119 -15 0 -27 14 -45 53 -34 71 -32 104 6 143 27
28 35 31 61 23 17 -4 40 -16 52 -26z m370 -41 c18 -64 7 -106 -34 -127 -40
-21 -50 -4 -50 87 0 66 3 81 21 99 27 27 41 14 63 -59z m-580 -107 c50 -39 79
-85 70 -109 -3 -8 -26 -31 -50 -51 -32 -26 -50 -35 -65 -30 -45 14 -75 108
-49 153 5 9 14 29 20 45 5 15 13 27 18 27 5 0 30 -16 56 -35z m-276 -50 c-2
-12 -11 -20 -23 -20 -17 0 -21 8 -23 45 l-3 45 26 -25 c15 -14 25 -33 23 -45z
m647 19 c18 -7 45 -55 45 -80 0 -22 -66 -84 -91 -84 -26 0 -26 45 0 84 15 22
17 35 10 53 -5 13 -9 26 -9 29 0 6 26 5 45 -2z m258 -61 c-8 -23 -34 -53 -45
-53 -15 0 -8 23 14 47 26 27 40 30 31 6z m-768 -79 c25 -25 45 -52 45 -59 0
-17 -57 -65 -76 -65 -22 0 -44 61 -44 120 0 64 16 65 75 4z m323 -29 c64 -61
64 -70 2 -112 -42 -29 -51 -29 -84 2 -22 21 -26 32 -26 84 0 47 4 62 18 70 27
16 30 14 90 -44z m303 -46 c20 -10 20 -11 3 -30 -18 -20 -64 -26 -64 -8 0 17
20 49 31 49 6 0 19 -5 30 -11z m-511 -48 c0 -4 16 -25 35 -46 20 -20 34 -40
31 -43 -9 -8 -95 19 -107 34 -17 21 -3 64 21 64 11 0 20 -4 20 -9z m328 -37
c42 -29 16 -64 -47 -64 -42 0 -48 17 -15 51 32 34 33 34 62 13z m-2651 -626
c231 -233 566 -567 743 -743 177 -176 342 -346 366 -379 l44 -58 -18 -31 c-23
-40 -1580 -1597 -1598 -1597 -4 0 -3 523 1 1163 4 639 9 1324 10 1522 3 535 3
545 18 545 6 1 202 -190 434 -422z m5403 -109 c-1 -1198 -7 -2650 -13 -2655
-3 -3 -12 -2 -19 3 -8 4 -164 161 -348 348 -183 187 -531 539 -772 781 -385
386 -439 444 -430 461 6 10 39 46 74 79 35 34 385 385 778 780 456 459 718
716 722 708 4 -6 8 -234 8 -505z m-3395 163 c229 -51 389 -144 414 -241 5 -20
12 -97 16 -171 8 -176 -12 -1325 -25 -1455 -10 -94 -26 -165 -36 -165 -3 0
-30 19 -61 41 -66 49 -179 102 -248 117 -27 6 -107 18 -176 28 -106 14 -136
14 -200 4 -41 -7 -86 -13 -102 -14 l-27 -1 -2 125 c-2 203 11 1298 18 1522 7
212 8 220 49 231 45 13 292 -1 380 -21z m1346 -12 c15 -9 19 -21 19 -68 -1
-31 3 -257 8 -502 6 -269 6 -528 1 -655 -5 -115 -10 -299 -10 -409 l0 -198
-27 5 c-183 33 -164 33 -407 -13 -46 -9 -203 -81 -289 -134 -33 -20 -63 -36
-68 -36 -11 0 -36 94 -43 160 -11 111 -9 954 3 1230 16 353 22 404 58 441 33
35 120 81 203 108 61 20 269 66 336 74 66 9 197 6 216 -3z m-1856 -931 c-3
-491 -8 -901 -11 -913 -4 -11 -32 -51 -63 -89 -31 -38 -66 -84 -77 -104 l-21
-34 -7 51 c-4 28 -6 153 -6 278 1 125 1 351 1 502 -1 427 19 1009 36 1042 15
31 131 158 144 158 4 0 6 -401 4 -891z m1985 683 c0 -107 9 -156 25 -140 4 3
11 57 16 119 6 63 12 115 15 118 15 15 19 -39 19 -267 0 -231 2 -257 17 -260
19 -4 26 48 34 286 3 83 9 152 13 152 10 0 34 -270 27 -301 -5 -21 -20 -1052
-16 -1119 5 -119 1 -353 -7 -361 -17 -17 -23 119 -25 514 -1 331 -3 371 -18
390 -17 21 -17 20 -30 -18 -9 -28 -11 -66 -5 -139 5 -56 8 -121 8 -146 -2
-137 -14 -485 -18 -488 -2 -3 -9 8 -15 24 -7 19 -10 115 -9 274 2 135 -1 251
-5 258 -4 7 -13 12 -20 12 -10 0 -14 -50 -19 -214 -4 -118 -10 -222 -13 -231
-17 -44 -23 25 -17 210 9 313 21 1269 16 1278 -8 14 9 177 18 171 5 -3 9 -58
9 -122z m-164 -1653 c37 -14 72 -37 102 -68 61 -63 102 -120 102 -143 0 -18
-9 -19 -237 -16 -131 2 -269 1 -308 -3 -38 -4 -128 -12 -200 -18 -166 -15
-165 -14 -165 -57 0 -73 -55 -134 -122 -134 -74 0 -128 50 -128 118 0 16 -7
35 -15 42 -11 9 -132 12 -490 13 -262 0 -478 4 -481 9 -3 4 7 30 20 57 33 64
137 153 208 177 85 30 252 26 403 -10 178 -42 210 -54 269 -99 30 -23 81 -63
115 -89 34 -27 70 -48 81 -48 12 0 36 15 55 34 54 55 120 95 239 149 221 99
430 131 552 86z m-471 -962 c195 -192 355 -353 355 -358 0 -5 -64 -9 -142 -9
-79 0 -149 -4 -156 -9 -10 -6 6 -32 61 -102 92 -117 102 -135 81 -143 -28 -11
-292 -7 -299 5 -4 6 9 36 28 67 77 127 88 165 49 176 -10 3 -127 8 -262 11
-232 6 -247 5 -269 -12 -29 -23 -26 -29 60 -149 33 -44 59 -86 59 -92 0 -13
-69 -14 -252 -3 l-106 6 95 113 c52 62 92 116 88 120 -3 3 -108 9 -233 13
-125 4 -229 7 -232 8 -3 0 155 161 350 356 195 195 358 354 362 353 4 -2 168
-160 363 -351z m478 -435 c35 -38 44 -162 31 -409 l-7 -119 -31 0 c-17 0 -112
-1 -211 -2 -99 0 -436 1 -748 2 -560 3 -568 3 -589 24 -11 11 -18 27 -15 35 5
13 100 15 764 14 l758 -2 6 175 c4 96 7 203 8 238 1 65 7 74 34 44z m-1233 -3
c0 -6 -35 -46 -78 -90 -73 -74 -80 -79 -120 -79 -23 0 -42 4 -42 8 0 8 82 89
143 140 37 32 97 45 97 21z m660 -10 c0 -14 -84 -142 -104 -158 -8 -7 -31 -11
-51 -9 l-36 3 51 75 c28 41 59 81 68 88 20 15 72 16 72 1z m-1105 -231 l-7
-203 39 -63 c21 -35 47 -69 58 -75 13 -8 70 -11 168 -10 133 2 147 1 146 -15
0 -9 -32 -98 -72 -197 -83 -207 -65 -192 -224 -194 -55 -1 -95 -5 -99 -12 -3
-6 -8 -126 -10 -267 -5 -296 -3 -291 -81 -274 -45 10 -262 26 -348 26 -48 -1
-464 42 -550 56 -33 6 -132 21 -219 35 -87 14 -161 27 -163 29 -12 11 42 67
394 409 208 202 509 500 668 661 160 162 294 294 298 295 5 1 6 -90 2 -201z
m2141 -266 c676 -676 828 -832 817 -843 -11 -11 -37 -18 -218 -57 -165 -36
-244 -46 -675 -82 -52 -4 -135 -11 -183 -16 -72 -6 -91 -4 -98 7 -5 8 -9 114
-9 236 0 126 -4 233 -10 249 l-10 26 -104 -7 c-70 -4 -111 -3 -125 4 -13 8
-27 35 -41 84 -12 39 -37 112 -56 160 -54 134 -56 131 111 138 155 7 222 16
231 30 5 8 11 177 14 392 0 15 2 27 4 27 2 0 160 -157 352 -348z m-838 -144
c5 -7 25 -62 45 -123 19 -60 44 -130 55 -155 22 -47 21 -60 -6 -60 -39 1 -63
37 -108 160 -45 128 -53 175 -31 183 21 9 34 7 45 -5z m390 -640 c3 -214 -1
-228 -54 -228 l-24 0 0 208 c0 115 3 212 7 216 4 4 21 6 38 4 l30 -3 3 -197z
m-786 124 c25 -25 18 -38 -26 -46 -41 -8 -74 -39 -106 -103 -23 -44 -25 -62
-30 -225 -3 -97 -8 -179 -12 -183 -3 -3 -64 -9 -135 -12 l-129 -6 -85 37 c-46
21 -95 43 -109 49 -21 10 8 13 162 17 102 3 190 9 195 13 4 5 11 79 14 165 4
86 12 173 19 192 18 50 54 94 92 114 44 22 122 16 150 -12z m58 -297 c0 -141
2 -157 25 -209 14 -31 25 -62 25 -68 0 -7 -26 -37 -58 -68 -32 -30 -83 -83
-114 -118 l-56 -63 -33 42 c-18 23 -60 59 -92 79 -39 25 -55 40 -47 45 7 4 55
10 106 13 112 6 106 -5 99 190 -5 138 10 241 41 289 17 26 73 45 92 30 9 -7
12 -52 12 -162z m225 -205 c-44 -21 -83 -39 -87 -39 -9 -1 -38 53 -38 69 0 6
37 10 103 9 l102 -1 -80 -38z"/>
<path d="M5177 6963 c-13 -12 -7 -50 11 -66 9 -8 45 -20 80 -27 193 -34 435
-124 549 -201 76 -53 108 -29 42 32 -81 75 -338 191 -540 244 -97 25 -131 30
-142 18z"/>
<path d="M5202 6444 c-14 -10 -22 -25 -22 -45 0 -36 27 -49 103 -49 29 0 81
-7 117 -14 92 -20 284 -99 350 -145 30 -21 70 -46 88 -55 29 -15 33 -15 38 -1
12 32 -74 97 -248 190 -122 64 -215 100 -310 120 -86 19 -89 18 -116 -1z"/>
<path d="M5182 5908 c-17 -17 -15 -52 6 -71 9 -9 53 -20 101 -27 199 -27 396
-85 525 -154 90 -48 75 -4 -24 69 -70 51 -344 156 -470 181 -91 17 -122 18
-138 2z"/>
<path d="M6595 6949 c-27 -11 -83 -31 -123 -44 -93 -32 -138 -55 -232 -118
-91 -60 -120 -86 -120 -105 0 -20 43 -8 110 33 99 59 153 82 318 135 141 45
163 55 168 75 3 13 3 29 -1 34 -10 17 -65 12 -120 -10z"/>
<path d="M6610 6468 c-139 -52 -261 -103 -333 -139 -95 -47 -197 -125 -197
-150 0 -11 3 -19 8 -19 4 0 61 27 127 60 77 39 179 79 285 111 170 53 210 75
210 115 0 19 -27 46 -42 43 -2 0 -28 -10 -58 -21z"/>
<path d="M6550 5950 c-104 -33 -219 -87 -325 -151 -109 -65 -150 -101 -142
-123 6 -16 11 -15 49 9 134 83 300 143 535 191 50 10 72 73 34 94 -29 15 -56
11 -151 -20z"/>
<path d="M6980 6821 c0 -22 15 -35 30 -26 7 4 7 13 0 26 -14 25 -30 25 -30 0z"/>
<path d="M6977 6604 c-4 -4 -7 -107 -7 -228 l1 -221 19 24 c18 21 20 39 20
210 0 136 -3 192 -13 205 -7 9 -16 14 -20 10z"/>
<path d="M7064 6508 c-9 -14 -7 -219 2 -228 24 -23 54 144 36 204 -9 33 -26
44 -38 24z"/>
<path d="M10115 10361 c-73 -18 -144 -76 -176 -146 -26 -55 -24 -138 6 -285
31 -151 31 -193 3 -250 -39 -76 -117 -109 -192 -80 -43 16 -104 79 -122 125
-23 63 -15 142 20 196 49 74 13 62 -73 -25 -83 -83 -94 -108 -47 -99 22 5 29
-3 60 -65 46 -92 89 -140 151 -168 130 -61 288 -3 343 126 22 52 17 159 -12
289 -43 187 -32 268 43 318 61 41 130 25 193 -45 62 -69 71 -144 28 -225 -36
-67 -10 -62 66 14 41 41 74 77 74 81 0 5 -11 8 -25 8 -20 0 -30 10 -50 51 -65
127 -189 204 -290 180z"/>
<path d="M1356 9883 c-124 -149 -202 -251 -197 -256 6 -6 18 -1 32 12 32 30
69 26 120 -11 24 -17 150 -120 280 -229 258 -216 274 -235 246 -294 -39 -82
15 -30 201 193 109 131 201 243 205 249 8 12 -75 135 -95 142 -11 4 -9 -9 13
-87 10 -38 9 -47 -12 -87 -13 -25 -59 -88 -103 -140 -60 -73 -84 -95 -103 -95
-17 0 -67 35 -154 107 -71 59 -129 111 -129 116 0 17 172 215 196 226 16 7 32
7 54 -1 58 -20 51 6 -17 62 -88 73 -103 83 -110 76 -4 -3 2 -21 12 -39 11 -21
16 -43 12 -58 -4 -13 -48 -73 -98 -132 l-91 -109 -22 20 c-11 10 -76 65 -144
121 -68 57 -122 107 -120 112 9 26 198 240 225 255 29 16 34 16 72 2 45 -18
62 -12 33 12 -11 8 -38 30 -60 48 l-40 32 -206 -247z"/>
<path d="M10876 9573 c12 -45 7 -73 -17 -100 -30 -32 -547 -389 -583 -403 -40
-15 -51 -13 -84 15 -60 50 -43 3 45 -123 48 -70 93 -125 98 -123 6 1 8 8 6 15
-2 6 -6 27 -9 47 -5 47 14 65 238 220 358 249 358 249 399 249 25 0 44 -7 56
-20 20 -22 35 -26 35 -9 0 15 -172 259 -183 259 -5 0 -6 -12 -1 -27z"/>
<path d="M718 8959 c-37 -78 -65 -146 -62 -151 3 -4 19 6 35 23 26 28 34 31
67 26 31 -5 279 -117 305 -137 7 -6 -197 -440 -208 -440 -21 0 -276 133 -299
156 -25 25 -27 34 -22 71 3 25 2 43 -4 43 -8 0 -150 -269 -150 -285 0 -12 21
-3 44 20 44 44 69 36 381 -116 160 -77 305 -150 322 -162 41 -28 57 -64 44
-99 -7 -20 -7 -28 3 -31 9 -4 35 40 80 132 80 167 86 195 25 130 -26 -27 -34
-31 -65 -26 -39 7 -314 136 -314 148 0 4 48 104 106 223 l106 216 147 -75 c81
-41 156 -84 166 -95 16 -18 22 -54 13 -89 -2 -7 2 -15 7 -17 12 -5 147 275
139 288 -3 4 -19 -6 -35 -23 -26 -28 -34 -31 -69 -26 -46 6 -588 266 -640 307
-31 24 -35 33 -36 76 0 26 -5 49 -10 51 -5 2 -39 -61 -76 -138z"/>
<path d="M11267 8888 c-48 -23 -86 -46 -84 -52 2 -6 24 -9 50 -7 69 4 98 -22
152 -133 25 -50 45 -96 45 -101 0 -6 -148 -77 -328 -159 -362 -165 -404 -178
-439 -132 -24 30 -49 35 -39 9 27 -73 123 -272 131 -269 5 1 8 20 7 42 -3 31
2 44 21 62 19 18 682 332 701 332 12 0 80 -183 84 -226 4 -46 1 -54 -28 -88
-18 -20 -30 -39 -28 -42 8 -7 178 73 178 84 0 5 -17 27 -37 49 -27 28 -67 103
-136 256 -134 293 -146 325 -147 375 0 23 -3 42 -7 41 -5 0 -48 -19 -96 -41z"/>
<path d="M176 7699 c5 -54 -3 -102 -46 -294 -71 -318 -78 -346 -107 -383 -14
-18 -23 -36 -20 -39 7 -7 156 -42 180 -43 27 0 20 18 -13 35 -36 18 -60 62
-60 107 0 50 33 200 45 204 15 6 676 -142 726 -162 45 -18 59 -39 59 -83 0
-33 15 -42 24 -13 6 20 66 282 66 288 0 2 -7 4 -15 4 -8 0 -15 -7 -15 -15 0
-26 -38 -55 -72 -55 -40 -1 -729 150 -742 162 -13 11 29 185 55 227 19 32 71
61 109 61 46 0 15 19 -57 35 -43 9 -88 19 -100 22 -22 5 -22 3 -17 -58z"/>
<path d="M11800 7675 c0 -20 -6 -48 -14 -63 -8 -15 -86 -97 -173 -183 l-158
-156 -155 -32 c-193 -39 -222 -40 -249 -5 -12 15 -21 33 -21 40 0 8 -7 14 -15
14 -19 0 -20 12 18 -164 32 -144 57 -199 57 -122 0 40 26 70 74 85 17 5 97 24
177 41 l145 31 204 -75 c112 -42 214 -83 227 -91 13 -9 31 -32 40 -50 18 -38
33 -46 33 -17 0 9 -10 63 -22 120 -14 67 -26 102 -35 102 -7 0 -13 -11 -13
-25 0 -32 -32 -49 -78 -41 -45 7 -292 96 -292 105 0 12 256 261 268 261 16 0
41 -29 48 -56 3 -13 13 -24 21 -24 9 0 12 6 9 18 -3 9 -19 86 -37 170 -22 103
-37 152 -46 152 -8 0 -13 -13 -13 -35z"/>
<path d="M339 6011 c-33 -33 -35 -50 -14 -91 36 -69 145 -34 145 46 0 23 -55
74 -80 74 -12 0 -35 -13 -51 -29z"/>
<path d="M11604 6030 c-28 -11 -54 -48 -54 -78 0 -48 64 -85 115 -66 23 9 46
60 39 88 -11 45 -60 72 -100 56z"/>
<path d="M11077 5053 c-6 -9 -87 -288 -87 -297 0 -3 7 -6 15 -6 8 0 15 6 15
13 0 28 41 52 84 50 37 -2 300 -74 312 -86 5 -5 -122 -457 -130 -465 -4 -3
-179 46 -266 75 -65 22 -90 48 -90 95 0 80 -25 38 -68 -113 -40 -140 -46 -192
-18 -145 23 40 46 56 80 56 34 0 597 -158 666 -186 54 -23 70 -43 70 -86 0
-74 23 -34 66 118 24 82 44 150 44 152 0 1 -7 2 -15 2 -8 0 -15 -5 -15 -10 0
-24 -50 -60 -82 -60 -24 0 -310 75 -326 86 -2 1 80 296 124 447 7 23 16 22
162 -19 189 -54 212 -69 212 -134 0 -16 5 -32 10 -35 6 -3 10 -4 10 -2 0 4 78
274 85 295 8 23 -21 12 -35 -13 -22 -41 -64 -48 -150 -26 -186 49 -597 173
-618 187 -27 18 -45 59 -37 84 6 18 -10 37 -18 23z"/>
<path d="M510 4951 c-169 -54 -282 -172 -325 -336 -50 -195 36 -417 205 -525
148 -95 362 -95 509 -1 245 158 285 508 84 732 -117 129 -311 183 -473 130z
m348 -125 c166 -59 253 -237 197 -405 -62 -187 -372 -325 -600 -266 -185 48
-289 233 -229 409 22 64 116 164 191 203 148 78 321 101 441 59z"/>
<path d="M1376 3752 c-2 -4 -1 -14 5 -22 19 -31 10 -67 -24 -96 -18 -16 -158
-100 -311 -188 -312 -178 -345 -190 -389 -142 -15 16 -28 23 -32 16 -7 -11
142 -280 156 -280 4 0 6 22 2 48 -5 45 -3 50 29 78 35 31 287 179 292 173 2
-2 31 -54 65 -115 69 -125 74 -157 36 -202 -14 -17 -22 -33 -18 -35 12 -7 223
115 217 125 -3 4 -24 5 -48 2 -24 -4 -52 -2 -64 5 -18 10 -158 239 -150 246 2
1 75 43 163 93 142 80 161 88 171 74 6 -10 39 -68 74 -130 74 -132 78 -158 31
-206 -18 -19 -29 -36 -24 -39 11 -7 133 62 133 76 0 16 -292 527 -301 527 -4
0 -10 -4 -13 -8z"/>
<path d="M10577 3675 c-3 -7 -3 -22 0 -33 4 -16 -14 -41 -74 -104 -87 -93
-125 -156 -148 -243 -56 -217 62 -448 282 -553 74 -35 83 -37 178 -37 96 0
104 2 177 38 88 43 165 115 233 216 53 81 129 236 121 249 -3 5 -55 39 -116
76 -60 37 -119 79 -131 94 -20 27 -22 64 -4 105 5 11 3 17 -6 17 -18 -1 -202
-304 -188 -309 6 -2 24 13 41 33 38 46 66 47 154 1 113 -59 134 -79 134 -127
0 -86 -78 -189 -180 -237 -49 -23 -67 -26 -165 -25 -89 0 -121 4 -166 22 -127
50 -245 151 -295 251 -39 77 -41 191 -5 265 33 66 91 122 158 153 46 21 65 24
121 21 37 -3 75 -8 85 -13 11 -5 17 -3 17 6 0 21 -217 151 -223 134z"/>
<path d="M9760 2488 c-46 -18 -83 -49 -219 -183 -103 -101 -161 -166 -157
-174 5 -8 15 -6 33 9 35 27 63 25 109 -9 64 -48 492 -484 503 -513 8 -20 6
-34 -9 -62 -10 -20 -15 -38 -11 -41 11 -6 236 223 228 231 -4 4 -23 -1 -42
-12 -35 -19 -36 -19 -78 4 -24 12 -88 67 -142 122 l-99 100 29 30 c71 74 148
85 323 46 59 -13 142 -30 185 -37 l77 -13 65 64 c42 41 61 68 55 74 -6 6 -19
5 -35 -2 -41 -19 -128 -14 -248 14 -69 16 -144 27 -194 28 -46 0 -83 4 -83 7
0 3 7 27 16 53 33 97 -1 196 -87 253 -56 37 -142 42 -219 11z m105 -87 c73
-33 135 -123 135 -196 0 -38 -48 -120 -99 -170 l-51 -49 -145 144 -145 145 48
48 c88 91 173 117 257 78z"/>
<path d="M2476 2271 c-3 -4 3 -16 14 -26 28 -26 25 -74 -7 -122 -71 -103 -419
-513 -449 -529 -31 -17 -35 -17 -68 -1 -19 9 -38 12 -41 7 -6 -9 20 -31 245
-215 80 -65 168 -138 196 -162 l51 -43 67 51 c72 54 78 82 13 54 -46 -19 -90
-19 -126 -1 -35 18 -213 163 -224 182 -5 8 -7 23 -5 34 3 18 207 279 218 279
3 0 55 -42 115 -93 l110 -92 -2 -57 c-1 -31 2 -57 6 -57 5 0 38 37 75 82 44
54 63 85 56 92 -6 6 -15 4 -27 -6 -18 -16 -35 -21 -65 -19 -28 2 -239 181
-231 195 19 33 229 284 235 283 22 -6 251 -204 264 -228 12 -24 12 -34 0 -69
-7 -22 -11 -42 -7 -45 7 -4 89 93 91 108 1 9 -480 406 -492 407 -4 0 -9 -4
-12 -9z"/>
<path d="M8860 1755 c-69 -41 -126 -79 -128 -84 -2 -5 17 -9 42 -8 37 2 50 -3
70 -23 14 -14 90 -137 170 -274 109 -186 146 -257 146 -282 0 -43 -34 -132
-64 -165 -70 -79 -175 -121 -252 -100 -76 20 -113 66 -254 306 -131 225 -160
281 -160 309 0 8 12 28 26 45 14 17 24 35 22 41 -3 10 -271 -143 -276 -159 -2
-6 14 -8 45 -5 43 5 51 3 75 -23 15 -15 86 -129 158 -253 72 -124 148 -242
168 -263 108 -111 260 -116 400 -13 61 45 100 100 128 183 l22 65 28 -48 c15
-27 29 -51 30 -53 6 -8 184 103 184 115 0 11 -6 11 -27 3 -36 -13 -63 -6 -95
28 -15 15 -101 156 -192 312 -182 311 -190 335 -141 381 22 20 25 41 7 40 -4
-1 -63 -34 -132 -75z"/>
<path d="M3430 1558 c0 -6 12 -22 26 -35 41 -38 30 -79 -91 -343 -164 -358
-181 -389 -218 -405 -20 -8 -39 -10 -54 -4 -20 7 -43 -4 -31 -16 9 -9 417
-194 460 -208 237 -81 448 -1 547 208 82 171 62 347 -55 492 -55 67 -124 110
-337 210 -242 114 -247 116 -247 101z m314 -169 c123 -60 186 -116 224 -197
69 -149 20 -370 -111 -510 -124 -130 -263 -145 -457 -47 -86 43 -94 54 -88
113 6 57 295 692 315 692 7 0 59 -23 117 -51z"/>
<path d="M7415 1095 c-5 -2 -90 -25 -187 -51 -120 -32 -178 -52 -178 -61 0 -9
7 -11 25 -7 31 8 69 -15 89 -54 21 -40 186 -648 186 -683 0 -29 -38 -79 -60
-79 -5 0 -10 -7 -10 -16 0 -10 6 -14 18 -10 9 3 109 30 222 61 113 31 227 68
253 83 83 45 137 122 137 198 0 41 -32 113 -67 149 -45 46 -107 75 -178 82
l-53 6 31 26 c69 57 102 123 93 185 -19 114 -103 177 -235 175 -42 0 -80 -2
-86 -4z m70 -46 c75 -21 135 -106 135 -192 0 -80 -71 -152 -181 -184 -50 -15
-72 -18 -74 -10 -28 79 -95 351 -89 357 11 9 120 38 149 39 11 1 38 -4 60 -10z
m174 -419 c88 -45 135 -150 110 -242 -16 -63 -71 -110 -151 -132 -84 -22 -107
-19 -134 21 -26 39 -110 332 -98 343 5 4 38 15 74 24 76 18 147 13 199 -14z"/>
<path d="M4740 1047 c0 -8 13 -20 29 -27 48 -19 54 -56 30 -174 -41 -205 -120
-552 -131 -579 -15 -37 -54 -67 -89 -67 -59 0 -26 -19 69 -40 53 -12 123 -28
155 -35 35 -7 60 -9 63 -3 3 5 4 10 3 11 -2 1 -17 9 -34 17 -57 29 -56 50 25
418 41 185 81 344 91 361 14 23 28 32 59 37 22 4 43 11 46 15 3 5 3 9 0 9 -8
0 -277 60 -298 66 -12 3 -18 0 -18 -9z"/>
<path d="M6267 903 c-14 -13 -6 -23 17 -23 14 0 37 -11 52 -23 26 -22 28 -31
36 -144 5 -67 7 -207 6 -313 l-3 -192 -284 346 -283 346 -114 0 c-91 0 -114
-3 -114 -14 0 -8 15 -17 33 -20 19 -3 47 -20 63 -37 l29 -30 9 -313 c5 -172 6
-334 2 -361 -9 -55 -42 -95 -81 -95 -16 0 -25 -6 -25 -15 0 -13 22 -15 135
-15 113 0 135 2 135 15 0 8 -9 15 -20 15 -41 0 -79 29 -89 68 -11 37 -21 683
-11 681 3 0 147 -172 320 -382 174 -210 322 -383 330 -385 13 -2 15 54 15 409
l0 411 28 24 c15 13 39 24 53 24 15 0 24 6 24 15 0 13 -21 15 -128 15 -71 0
-132 -3 -135 -7z"/>
</g>
</svg>
