<?xml version="1.0" standalone="no"?>
<!DOCTYPE svg PUBLIC "-//W3C//DTD SVG 20010904//EN"
 "http://www.w3.org/TR/2001/REC-SVG-20010904/DTD/svg10.dtd">
<svg version="1.0" xmlns="http://www.w3.org/2000/svg"
 width="200.000000pt" height="200.000000pt" viewBox="0 0 200.000000 200.000000"
 preserveAspectRatio="xMidYMid meet">

<g transform="translate(0.000000,200.000000) scale(0.100000,-0.100000)"
fill="#000000" stroke="none">
<path d="M177 1974 c-4 -4 -7 -286 -7 -626 0 -580 1 -623 19 -677 41 -125 110
-228 227 -342 163 -157 335 -254 527 -299 48 -11 67 -11 110 -1 140 35 291
104 397 184 135 101 281 267 326 372 59 135 55 76 52 760 l-3 630 -821 3
c-451 1 -824 -1 -827 -4z m808 -448 l0 -430 -200 -92 c-110 -51 -231 -108
-270 -126 -38 -17 -121 -56 -183 -85 -62 -29 -117 -53 -122 -53 -6 0 -10 22
-10 49 l0 48 373 169 372 170 3 372 2 371 -42 -18 c-51 -22 -606 -275 -662
-302 -22 -11 -41 -19 -43 -19 -2 0 -3 86 -3 190 l0 190 393 -2 392 -3 0 -429z
m428 217 l367 -167 0 -363 c0 -298 -2 -363 -13 -363 -8 0 -51 18 -96 40 -45
22 -83 40 -86 40 -2 0 -43 19 -92 41 -48 23 -122 56 -163 74 -41 18 -124 56
-185 84 l-110 51 -3 365 c-1 201 1 365 5 365 5 0 173 -75 376 -167z m-722
-143 c20 -11 26 -54 9 -65 -5 -3 -10 -13 -10 -21 0 -10 12 -14 40 -14 31 0 47
-6 65 -26 23 -25 25 -35 25 -120 0 -91 0 -93 -31 -118 -30 -25 -34 -26 -181
-26 l-150 0 -29 29 c-27 28 -29 34 -29 114 0 77 2 88 26 116 21 25 33 31 65
31 27 0 39 4 39 14 0 8 -4 18 -10 21 -16 10 -11 53 8 64 22 14 138 14 163 1z
m319 -600 c0 -5 -5 -10 -11 -10 -5 0 -7 5 -4 10 3 6 8 10 11 10 2 0 4 -4 4
-10z m-20 -55 c0 -14 -4 -25 -9 -25 -4 0 -6 11 -3 25 2 14 6 25 8 25 2 0 4
-11 4 -25z m27 -12 c-3 -10 -5 -4 -5 12 0 17 2 24 5 18 2 -7 2 -21 0 -30z
m228 -43 c-3 -5 -11 -10 -16 -10 -6 0 -7 5 -4 10 3 6 11 10 16 10 6 0 7 -4 4
-10z m-455 -46 c0 -9 5 -12 12 -8 7 5 8 3 3 -6 -6 -10 -11 -9 -22 5 -15 22
-17 39 -3 30 6 -3 10 -13 10 -21z m440 18 c0 -5 -6 -16 -13 -27 -11 -14 -16
-15 -22 -5 -5 8 -4 11 2 7 6 -4 13 2 16 13 5 20 17 28 17 12z m-170 -19 c0 -5
-27 -8 -60 -8 -33 0 -60 3 -60 8 0 4 27 7 60 7 33 0 60 -3 60 -7z m249 -205
c-2 -86 -6 -76 -11 25 -2 31 0 57 5 57 4 0 6 -37 6 -82z m-142 30 c-3 -7 -5
-2 -5 12 0 14 2 19 5 13 2 -7 2 -19 0 -25z m-470 0 c-3 -8 -6 -5 -6 6 -1 11 2
17 5 13 3 -3 4 -12 1 -19z m140 0 c-3 -8 -6 -5 -6 6 -1 11 2 17 5 13 3 -3 4
-12 1 -19z m-217 2 c0 -5 -5 -10 -11 -10 -5 0 -7 5 -4 10 3 6 8 10 11 10 2 0
4 -4 4 -10z m797 -16 c-7 -7 -37 7 -37 17 0 6 9 5 21 -1 11 -7 19 -14 16 -16z
m-860 -10 c-3 -3 -12 -4 -19 -1 -8 3 -5 6 6 6 11 1 17 -2 13 -5z m284 -12 c-7
-2 -18 1 -23 6 -8 8 -4 9 13 5 13 -4 18 -8 10 -11z m61 -9 c-3 -16 -7 -22 -10
-15 -4 13 4 42 11 42 2 0 2 -12 -1 -27z m149 -18 c-4 -30 -6 -34 -9 -15 -2 14
-10 32 -17 40 -12 13 -10 15 8 15 20 0 22 -4 18 -40z m119 -7 c0 -51 -5 -47
-13 10 -3 24 -1 40 4 36 5 -3 9 -24 9 -46z m293 45 c-7 -2 -19 -2 -25 0 -7 3
-2 5 12 5 14 0 19 -2 13 -5z m-356 -70 c-3 -10 -5 -2 -5 17 0 19 2 27 5 18 2
-10 2 -26 0 -35z m-150 0 c-3 -10 -5 -4 -5 12 0 17 2 24 5 18 2 -7 2 -21 0
-30z m-137 -33 c0 -5 -4 -10 -10 -10 -5 0 -10 5 -10 10 0 6 5 10 10 10 6 0 10
-4 10 -10z m60 0 c0 -13 -20 -13 -40 0 -12 8 -9 10 13 10 15 0 27 -4 27 -10z
m80 6 c0 -3 -4 -8 -10 -11 -5 -3 -10 -1 -10 4 0 6 5 11 10 11 6 0 10 -2 10 -4z
m235 -6 c3 -5 2 -10 -4 -10 -5 0 -13 5 -16 10 -3 6 -2 10 4 10 5 0 13 -4 16
-10z m-478 -6 c-3 -3 -12 -4 -19 -1 -8 3 -5 6 6 6 11 1 17 -2 13 -5z m581 -1
c-10 -2 -26 -2 -35 0 -10 3 -2 5 17 5 19 0 27 -2 18 -5z m-268 -93 c0 -5 -4
-10 -10 -10 -5 0 -10 5 -10 10 0 6 5 10 10 10 6 0 10 -4 10 -10z m187 -12 c-3
-8 -6 -5 -6 6 -1 11 2 17 5 13 3 -3 4 -12 1 -19z m-290 -35 c-8 -7 -37 9 -31
19 3 5 12 4 20 -3 8 -6 13 -14 11 -16z m-137 1 c0 -8 4 -13 9 -9 5 3 13 0 16
-6 4 -6 18 -8 30 -5 13 3 26 2 29 -3 11 -16 -56 -22 -74 -6 -9 8 -22 15 -28
15 -7 0 -12 7 -12 15 0 8 7 15 15 15 8 0 15 -7 15 -16z m223 6 c32 0 17 -15
-32 -33 -57 -20 -61 -20 -61 -7 0 6 11 10 25 10 14 0 25 5 25 10 0 6 -4 10
-10 10 -5 0 -10 5 -10 11 0 7 9 9 23 5 12 -3 30 -6 40 -6z m335 -25 c8 -8 -11
-19 -59 -35 -34 -11 -42 -11 -54 1 -12 12 -9 14 23 14 20 0 37 5 37 10 0 6 -8
9 -17 8 -10 -2 -18 2 -18 8 0 12 76 7 88 -6z m-205 -16 c23 -27 17 -32 -18
-19 -21 8 -30 8 -36 -2 -6 -9 -13 -9 -33 2 -26 13 -35 30 -16 30 6 0 10 -4 10
-10 0 -16 37 -12 44 5 8 21 28 19 49 -6z m-423 -9 c-27 -21 -40 -25 -40 -12 0
9 38 30 55 31 6 0 -1 -8 -15 -19z m480 5 c0 -8 -4 -15 -9 -15 -13 0 -22 16
-14 24 11 11 23 6 23 -9z m-406 -40 c-10 -8 -26 -14 -34 -14 -9 0 -4 6 10 14
33 19 49 19 24 0z m112 0 c-23 -17 -46 -20 -46 -4 0 5 4 7 10 4 5 -3 18 -1 27
4 26 15 31 13 9 -4z"/>
<path d="M1335 1452 c-54 -5 -75 -12 -75 -26 0 -8 10 -16 22 -19 18 -5 20 -8
8 -22 -12 -15 -11 -19 9 -35 13 -9 19 -20 14 -23 -11 -7 -66 43 -91 81 l-15
23 -24 -27 c-22 -26 -24 -27 -43 -9 -16 15 -22 15 -35 5 -13 -11 -15 -8 -15
20 0 19 -3 30 -7 27 -11 -12 -6 -136 6 -151 15 -17 122 -19 134 -2 5 7 14 4
27 -12 15 -18 25 -21 51 -17 45 8 50 13 36 36 -10 16 -9 21 3 29 20 12 30 3
31 -28 1 -27 1 -27 8 3 6 28 7 28 13 8 3 -13 14 -26 25 -29 10 -3 28 -11 40
-16 15 -8 26 -8 35 -1 7 6 38 13 68 16 30 3 49 4 43 1 -27 -12 -11 -24 31 -24
36 0 49 5 73 30 34 36 40 37 46 8 2 -13 3 12 1 56 -3 77 -13 117 -15 60 -1
-21 -3 -23 -6 -9 -9 38 -23 40 -23 2 0 -28 -3 -35 -15 -31 -9 4 -15 19 -15 40
0 19 -4 34 -10 34 -5 0 -10 -20 -10 -45 0 -33 -4 -45 -15 -45 -11 0 -14 10
-11 40 2 22 0 43 -4 45 -11 7 -19 -78 -9 -89 13 -15 11 -26 -6 -26 -13 0 -18
16 -18 55 0 6 3 20 7 33 4 12 3 22 -2 22 -5 0 -13 -10 -17 -22 l-7 -23 -7 24
c-12 43 -31 37 -31 -9 0 -27 -4 -39 -11 -34 -6 3 -9 17 -6 30 6 33 -11 31 -19
-2 -4 -17 -2 -29 7 -35 7 -4 10 -11 7 -15 -12 -11 -38 23 -38 49 0 14 -6 29
-12 34 -15 12 -88 20 -133 15z m103 -18 c35 -10 26 -22 -20 -26 -57 -5 -121 4
-126 20 -3 9 13 12 60 12 35 0 73 -3 86 -6z m-303 -54 c3 -5 -1 -10 -9 -10 -9
0 -16 5 -16 10 0 6 4 10 9 10 6 0 13 -4 16 -10z m325 -5 c0 -8 -4 -15 -10 -15
-5 0 -16 -15 -24 -32 l-14 -33 -1 32 c-1 17 -4 38 -7 47 -5 13 1 16 25 16 21
0 31 -5 31 -15z m108 -2 c-2 -10 3 -23 12 -30 13 -11 13 -12 -2 -13 -18 0 -33
33 -23 50 10 16 17 12 13 -7z m-185 -8 c-3 -13 -29 -18 -59 -11 -40 11 -27 27
19 24 23 -2 41 -7 40 -13z m-145 -26 c7 -10 8 -19 3 -19 -6 0 -12 4 -15 9 -3
4 -17 6 -30 4 -21 -4 -24 -2 -20 14 7 25 45 20 62 -8z m-109 1 c22 -19 24 -50
2 -50 -16 0 -41 30 -41 51 0 24 9 24 39 -1z m26 10 c3 -5 1 -10 -4 -10 -6 0
-11 5 -11 10 0 6 2 10 4 10 3 0 8 -4 11 -10z m345 -24 c0 -9 -7 -12 -20 -9
-24 6 -34 19 -25 33 8 14 45 -6 45 -24z m220 17 c-1 -10 -26 -43 -33 -43 -3 0
0 11 6 25 11 23 27 34 27 18z m-432 -31 c2 -7 -3 -12 -12 -12 -9 0 -16 7 -16
16 0 17 22 14 28 -4z m382 -8 c0 -23 -1 -24 -16 -10 -8 9 -12 20 -9 26 12 19
25 10 25 -16z m-92 7 c11 -7 10 -10 -3 -15 -19 -7 -35 0 -35 15 0 11 20 12 38
0z m-263 -21 c3 -5 -1 -10 -10 -10 -9 0 -13 5 -10 10 3 6 8 10 10 10 2 0 7 -4
10 -10z"/>
<path d="M536 1571 c-3 -5 1 -14 9 -21 8 -7 15 -25 15 -41 0 -27 -2 -29 -43
-29 -23 0 -53 -7 -65 -16 -20 -14 -22 -24 -22 -104 0 -123 -4 -120 179 -120
186 0 184 -1 187 109 3 101 -10 122 -82 130 -44 5 -49 9 -52 34 -2 18 2 29 12
33 21 8 21 34 1 34 -9 0 -27 -7 -40 -16 -22 -14 -26 -14 -47 0 -25 18 -44 20
-52 7z m31 -168 c-3 -10 -5 -4 -5 12 0 17 2 24 5 18 2 -7 2 -21 0 -30z"/>
</g>
</svg>
